<svg viewBox="0 0 122 36" version="1.1" xmlns="http://www.w3.org/2000/svg" xmlns:xlink="http://www.w3.org/1999/xlink">
<title>Group 4</title>
<desc>Created using Figma</desc>
<g id="Canvas" transform="translate(2878 1702)">
<g id="Group 4">
<g id="Agvania">
<use xlink:href="#path0_fill" transform="translate(-2878 -1711)" fill="#EB5757"/>
</g>
<g id="node1">
<use xlink:href="#path1_fill" transform="matrix(0.1 0 0 -0.1 -2768 -1691)" fill="#219653"/>
</g>
</g>
</g>
<defs>
<path id="path0_fill" d="M 14.0801 36L 16.8398 22.9395C 15.9258 22.5176 15.0879 22.2129 14.3262 22.0254C 13.5762 21.8379 12.8086 21.709 12.0234 21.6387C 11.3438 23.1035 10.7168 24.6094 10.1426 26.1562C 9.58008 27.7031 9.08789 29.209 8.66602 30.6738C 8.25586 32.127 7.93359 33.4922 7.69922 34.7695C 7.46484 36.0469 7.34766 37.1543 7.34766 38.0918C 7.34766 38.666 7.39453 39.0996 7.48828 39.3926C 7.59375 39.6973 7.71094 39.9316 7.83984 40.0957C 7.35938 40.0957 6.83789 40.0723 6.27539 40.0254C 5.72461 39.9785 5.20312 39.832 4.71094 39.5859C 4.23047 39.3516 3.82617 38.9766 3.49805 38.4609C 3.18164 37.9453 3.02344 37.2188 3.02344 36.2812C 3.02344 35.4844 3.14648 34.5293 3.39258 33.416C 3.65039 32.3027 4.01367 31.1074 4.48242 29.8301C 4.95117 28.541 5.50781 27.1992 6.15234 25.8047C 6.79688 24.3984 7.51758 23.0098 8.31445 21.6387C 7.17773 21.709 6.24609 21.8848 5.51953 22.166C 4.80469 22.4355 4.33008 22.8809 4.0957 23.502C 4.18945 23.502 4.28906 23.625 4.39453 23.8711C 4.51172 24.1055 4.57031 24.3574 4.57031 24.627C 4.57031 25.0605 4.37109 25.4062 3.97266 25.6641C 3.58594 25.9102 3.11133 26.0332 2.54883 26.0332C 2.23242 26.0332 1.93945 25.9922 1.66992 25.9102C 1.40039 25.8164 1.16602 25.6875 0.966797 25.5234C 0.767578 25.3477 0.609375 25.1309 0.492188 24.873C 0.375 24.6035 0.316406 24.293 0.316406 23.9414C 0.316406 23.332 0.498047 22.7578 0.861328 22.2188C 1.23633 21.6797 1.75195 21.2109 2.4082 20.8125C 3.06445 20.4141 3.83789 20.0977 4.72852 19.8633C 5.63086 19.6289 6.60938 19.5117 7.66406 19.5117C 8.15625 19.5117 8.7832 19.5469 9.54492 19.6172C 10.459 18.1758 11.4258 16.8164 12.4453 15.5391C 13.4648 14.25 14.5137 13.125 15.5918 12.1641C 16.6699 11.1914 17.7539 10.4238 18.8438 9.86133C 19.9336 9.28711 21.0059 9 22.0605 9C 22.4824 9 22.9512 9.03516 23.4668 9.10547C 23.9941 9.17578 24.4746 9.31055 24.9082 9.50977L 19.2656 36L 14.0801 36ZM 19.2656 11.5488C 18.7266 11.8418 18.1758 12.2637 17.6133 12.8145C 17.0625 13.3535 16.5117 13.998 15.9609 14.748C 15.4219 15.4863 14.8828 16.3125 14.3438 17.2266C 13.8047 18.1289 13.2832 19.084 12.7793 20.0918C 13.5059 20.2324 14.2441 20.4082 14.9941 20.6191C 15.7441 20.8184 16.4707 21.0586 17.1738 21.3398L 19.2656 11.5488ZM 36.8965 38.8828C 36.6387 40.1719 36.2637 41.2148 35.7715 42.0117C 35.291 42.8086 34.752 43.4297 34.1543 43.875C 33.5566 44.3203 32.9297 44.6191 32.2734 44.7715C 31.6289 44.9238 31.0078 45 30.4102 45C 29.8594 45 29.3379 44.9238 28.8457 44.7715C 28.3652 44.6309 27.9434 44.4141 27.5801 44.1211C 27.2168 43.8398 26.9238 43.4766 26.7012 43.0312C 26.4902 42.5977 26.3848 42.0879 26.3848 41.502C 26.3848 40.752 26.5605 40.0898 26.9121 39.5156C 27.2754 38.9414 27.7383 38.4375 28.3008 38.0039C 28.8633 37.582 29.4902 37.2188 30.1816 36.9141C 30.8848 36.6094 31.5762 36.3516 32.2559 36.1406L 32.6953 34.2422C 32.168 34.8047 31.5469 35.2734 30.832 35.6484C 30.1289 36.0234 29.3086 36.2109 28.3711 36.2109C 27.75 36.2109 27.1523 36.1113 26.5781 35.9121C 26.0039 35.7129 25.4941 35.3848 25.0488 34.9277C 24.6035 34.4707 24.2461 33.873 23.9766 33.1348C 23.707 32.3965 23.5723 31.4941 23.5723 30.4277C 23.5723 29.6074 23.6543 28.7285 23.8184 27.791C 23.9824 26.8535 24.2344 25.916 24.5742 24.9785C 24.9141 24.041 25.3359 23.1445 25.8398 22.2891C 26.3555 21.4219 26.9531 20.6602 27.6328 20.0039C 28.3242 19.3359 29.1035 18.8086 29.9707 18.4219C 30.8379 18.0234 31.793 17.8242 32.8359 17.8242C 33.8555 17.8242 34.5938 18 35.0508 18.3516C 35.5195 18.7031 35.7539 19.1367 35.7539 19.6523L 35.7539 19.8633L 36.1406 18L 41.3262 18L 37.7578 34.6992C 38.3086 34.5117 38.8066 34.2891 39.252 34.0312C 39.6973 33.7617 40.1016 33.4277 40.4648 33.0293C 40.8398 32.6191 41.1738 32.1328 41.4668 31.5703C 41.7715 31.0078 42.0469 30.334 42.293 29.5488L 43.8047 29.5488C 43.4414 30.7441 43.0078 31.7402 42.5039 32.5371C 42.0117 33.334 41.4844 33.9902 40.9219 34.5059C 40.3594 35.0098 39.7793 35.3965 39.1816 35.666C 38.584 35.9355 38.0039 36.1406 37.4414 36.2812L 36.8965 38.8828ZM 35.4199 21.3926C 35.4199 21.2871 35.3965 21.1582 35.3496 21.0059C 35.3027 20.8535 35.2207 20.707 35.1035 20.5664C 34.998 20.4258 34.8516 20.3086 34.6641 20.2148C 34.4766 20.1094 34.2363 20.0566 33.9434 20.0566C 33.4395 20.0566 32.959 20.2207 32.502 20.5488C 32.0566 20.877 31.6465 21.3164 31.2715 21.8672C 30.8965 22.4062 30.5625 23.0215 30.2695 23.7129C 29.9766 24.4043 29.7246 25.1191 29.5137 25.8574C 29.3145 26.584 29.1621 27.3047 29.0566 28.0195C 28.9512 28.7227 28.8984 29.3555 28.8984 29.918C 28.8984 30.6094 28.9629 31.1426 29.0918 31.5176C 29.2207 31.8926 29.373 32.1738 29.5488 32.3613C 29.7363 32.5371 29.9355 32.6426 30.1465 32.6777C 30.3574 32.7129 30.5449 32.7305 30.709 32.7305C 30.9551 32.7305 31.2188 32.6719 31.5 32.5547C 31.7812 32.4258 32.0566 32.2441 32.3262 32.0098C 32.6074 31.7754 32.8594 31.4824 33.082 31.1309C 33.3047 30.7793 33.4746 30.375 33.5918 29.918L 35.4199 21.3926ZM 31.8867 37.9512C 31.418 38.127 30.9727 38.3145 30.5508 38.5137C 30.1289 38.7246 29.7539 38.9531 29.4258 39.1992C 29.1094 39.4453 28.8516 39.7148 28.6523 40.0078C 28.4648 40.3125 28.3711 40.6465 28.3711 41.0098C 28.3711 41.1387 28.3945 41.2734 28.4414 41.4141C 28.4883 41.5547 28.5586 41.6836 28.6523 41.8008C 28.7578 41.918 28.8867 42.0117 29.0391 42.082C 29.1914 42.1523 29.373 42.1875 29.584 42.1875C 29.959 42.1875 30.3398 41.9238 30.7266 41.3965C 31.125 40.8809 31.4414 40.0781 31.6758 38.9883L 31.8867 37.9512ZM 44.7363 18L 49.9219 18L 47.3379 30.2344C 47.2793 30.5039 47.2324 30.75 47.1973 30.9727C 47.1621 31.1836 47.1445 31.3711 47.1445 31.5352C 47.1445 31.8984 47.2383 32.1914 47.4258 32.4141C 47.625 32.625 47.9414 32.7305 48.375 32.7305C 48.9609 32.7305 49.5234 32.5254 50.0625 32.1152C 50.6016 31.7051 51.0996 31.166 51.5566 30.498C 52.0137 29.8184 52.4297 29.0508 52.8047 28.1953C 53.1797 27.3398 53.4961 26.4668 53.7539 25.5762C 54.0234 24.6855 54.2285 23.8184 54.3691 22.9746C 54.5215 22.1191 54.5977 21.3633 54.5977 20.707C 54.5742 20.7656 54.5098 20.8184 54.4043 20.8652C 54.3105 20.9121 54.2051 20.9531 54.0879 20.9883C 53.9707 21.0117 53.8535 21.0293 53.7363 21.041C 53.6191 21.0527 53.5254 21.0586 53.4551 21.0586C 53.2441 21.0586 53.0566 21.0059 52.8926 20.9004C 52.7285 20.7832 52.5879 20.6367 52.4707 20.4609C 52.3652 20.2852 52.2832 20.0918 52.2246 19.8809C 52.1777 19.6582 52.1543 19.4414 52.1543 19.2305C 52.1543 18.668 52.3301 18.2051 52.6816 17.8418C 53.0449 17.4668 53.6133 17.2793 54.3867 17.2793C 54.8203 17.2793 55.1777 17.3672 55.459 17.543C 55.752 17.7188 55.9863 17.9531 56.1621 18.2461C 56.3379 18.5391 56.4609 18.873 56.5312 19.248C 56.6133 19.623 56.6543 20.0098 56.6543 20.4082C 56.6543 21.3691 56.5723 22.4297 56.4082 23.5898C 56.2441 24.7383 55.9805 25.8984 55.6172 27.0703C 55.2656 28.2422 54.8145 29.3789 54.2637 30.4805C 53.7246 31.5703 53.0742 32.543 52.3125 33.3984C 51.5508 34.2422 50.6777 34.9219 49.6934 35.4375C 48.709 35.9531 47.6074 36.2109 46.3887 36.2109C 45.0293 36.2109 43.9512 35.8652 43.1543 35.1738C 42.3691 34.4707 41.9766 33.4043 41.9766 31.9746C 41.9766 31.7754 41.9883 31.5234 42.0117 31.2188C 42.0352 30.9023 42.082 30.5742 42.1523 30.2344L 44.7363 18ZM 77.6426 29.5488C 77.3027 30.5215 76.9336 31.3652 76.5352 32.0801C 76.1367 32.7949 75.7207 33.3984 75.2871 33.8906C 74.8652 34.3828 74.4316 34.7812 73.9863 35.0859C 73.541 35.3906 73.1074 35.625 72.6855 35.7891C 72.2637 35.9531 71.8594 36.0645 71.4727 36.123C 71.0859 36.1816 70.7344 36.2109 70.418 36.2109C 69.3984 36.2109 68.584 35.9355 67.9746 35.3848C 67.377 34.8223 67.0137 33.9961 66.8848 32.9062C 66.5918 33.3164 66.2695 33.7207 65.918 34.1191C 65.5664 34.5059 65.1738 34.8574 64.7402 35.1738C 64.3066 35.4785 63.8203 35.7305 63.2812 35.9297C 62.7539 36.1172 62.168 36.2109 61.5234 36.2109C 60.9023 36.2109 60.3047 36.1113 59.7305 35.9121C 59.1562 35.7129 58.6465 35.3848 58.2012 34.9277C 57.7559 34.4707 57.3984 33.873 57.1289 33.1348C 56.8594 32.3965 56.7246 31.4941 56.7246 30.4277C 56.7246 29.6074 56.8066 28.7285 56.9707 27.791C 57.1348 26.8535 57.3867 25.916 57.7266 24.9785C 58.0664 24.041 58.4883 23.1445 58.9922 22.2891C 59.5078 21.4219 60.1055 20.6602 60.7852 20.0039C 61.4766 19.3359 62.2559 18.8086 63.123 18.4219C 63.9902 18.0234 64.9453 17.8242 65.9883 17.8242C 67.0078 17.8242 67.7461 18 68.2031 18.3516C 68.6719 18.7031 68.9062 19.1367 68.9062 19.6523L 68.9062 19.916L 69.293 18L 74.4785 18L 71.8945 30.2344C 71.8359 30.4336 71.7949 30.6328 71.7715 30.832C 71.748 31.0195 71.7363 31.207 71.7363 31.3945C 71.7363 32.4258 72.2285 32.9414 73.2129 32.9414C 73.5645 32.9414 73.8867 32.8535 74.1797 32.6777C 74.4844 32.4902 74.7598 32.2441 75.0059 31.9395C 75.252 31.6348 75.4688 31.2773 75.6562 30.8672C 75.8438 30.4453 76.002 30.0059 76.1309 29.5488L 77.6426 29.5488ZM 68.5723 21.4277C 68.5723 21.3223 68.5488 21.1934 68.502 21.041C 68.4551 20.877 68.373 20.7246 68.2559 20.584C 68.1504 20.4316 68.0039 20.3086 67.8164 20.2148C 67.6289 20.1094 67.3887 20.0566 67.0957 20.0566C 66.5918 20.0566 66.1113 20.2207 65.6543 20.5488C 65.209 20.877 64.7988 21.3164 64.4238 21.8672C 64.0488 22.4062 63.7148 23.0215 63.4219 23.7129C 63.1289 24.4043 62.877 25.1191 62.666 25.8574C 62.4668 26.584 62.3145 27.3047 62.209 28.0195C 62.1035 28.7227 62.0508 29.3555 62.0508 29.918C 62.0508 30.6094 62.1152 31.1426 62.2441 31.5176C 62.373 31.8926 62.5254 32.1738 62.7012 32.3613C 62.8887 32.5371 63.0879 32.6426 63.2988 32.6777C 63.5098 32.7129 63.6973 32.7305 63.8613 32.7305C 64.1309 32.7305 64.4121 32.666 64.7051 32.5371C 65.0098 32.3965 65.2969 32.1973 65.5664 31.9395C 65.8477 31.6699 66.0996 31.3359 66.3223 30.9375C 66.5566 30.5391 66.7324 30.0762 66.8496 29.5488L 68.5723 21.4277ZM 95.8359 29.5488C 95.332 31.0254 94.7871 32.2031 94.2012 33.082C 93.627 33.9609 93.041 34.6348 92.4434 35.1035C 91.8574 35.5605 91.2773 35.8594 90.7031 36C 90.1406 36.1406 89.6191 36.2109 89.1387 36.2109C 88.3418 36.2109 87.6738 36.0996 87.1348 35.877C 86.5957 35.6426 86.1621 35.3379 85.834 34.9629C 85.5059 34.5762 85.2656 34.1426 85.1133 33.6621C 84.9727 33.1699 84.9023 32.666 84.9023 32.1504C 84.9023 31.541 84.9844 30.832 85.1484 30.0234C 85.3242 29.2031 85.5117 28.3652 85.7109 27.5098C 85.9102 26.6543 86.0918 25.8281 86.2559 25.0312C 86.4316 24.2344 86.5195 23.5488 86.5195 22.9746C 86.5195 21.7441 86.0859 21.1289 85.2188 21.1289C 84.8906 21.1289 84.5859 21.2168 84.3047 21.3926C 84.0234 21.5684 83.7656 21.8086 83.5312 22.1133C 83.2969 22.4062 83.0859 22.7578 82.8984 23.168C 82.7109 23.5664 82.5469 23.9941 82.4062 24.4512L 79.9629 36L 74.7773 36L 78.5918 18L 83.7773 18L 83.3906 19.8633C 83.7773 19.4297 84.1582 19.084 84.5332 18.8262C 84.9199 18.5566 85.2949 18.3516 85.6582 18.2109C 86.0215 18.0703 86.3613 17.9766 86.6777 17.9297C 87.0059 17.8828 87.3105 17.8594 87.5918 17.8594C 88.166 17.8594 88.6992 17.9355 89.1914 18.0879C 89.6836 18.2402 90.1055 18.4805 90.457 18.8086C 90.8203 19.1367 91.1016 19.5586 91.3008 20.0742C 91.5 20.5898 91.5996 21.2051 91.5996 21.9199C 91.5996 22.4004 91.5527 22.9219 91.459 23.4844C 91.377 24.0352 91.2715 24.6035 91.1426 25.1895C 91.0137 25.7637 90.873 26.3379 90.7207 26.9121C 90.5801 27.4863 90.4453 28.0371 90.3164 28.5645C 90.1875 29.0918 90.0762 29.584 89.9824 30.041C 89.9004 30.4863 89.8594 30.8789 89.8594 31.2188C 89.8594 31.6641 89.959 32.0273 90.1582 32.3086C 90.3691 32.5898 90.75 32.7305 91.3008 32.7305C 91.6875 32.7305 92.0273 32.6543 92.3203 32.502C 92.6133 32.3496 92.877 32.1328 93.1113 31.8516C 93.3457 31.5703 93.5566 31.2363 93.7441 30.8496C 93.9434 30.4512 94.1367 30.0176 94.3242 29.5488L 95.8359 29.5488ZM 103.219 13.2188C 103.219 13.6172 103.143 13.9922 102.99 14.3438C 102.838 14.6836 102.627 14.9824 102.357 15.2402C 102.1 15.4863 101.795 15.6855 101.443 15.8379C 101.104 15.9785 100.734 16.0488 100.336 16.0488C 99.9375 16.0488 99.5625 15.9785 99.2109 15.8379C 98.8711 15.6855 98.5723 15.4863 98.3145 15.2402C 98.0566 14.9824 97.8516 14.6836 97.6992 14.3438C 97.5586 13.9922 97.4883 13.6172 97.4883 13.2188C 97.4883 12.8203 97.5586 12.4512 97.6992 12.1113C 97.8516 11.7598 98.0566 11.4551 98.3145 11.1973C 98.5723 10.9277 98.8711 10.7168 99.2109 10.5645C 99.5625 10.4121 99.9375 10.3359 100.336 10.3359C 100.734 10.3359 101.104 10.4121 101.443 10.5645C 101.795 10.7168 102.1 10.9277 102.357 11.1973C 102.627 11.4551 102.838 11.7598 102.99 12.1113C 103.143 12.4512 103.219 12.8203 103.219 13.2188ZM 105.451 29.5488C 105.111 30.5215 104.73 31.3652 104.309 32.0801C 103.898 32.7949 103.465 33.3984 103.008 33.8906C 102.562 34.3828 102.1 34.7812 101.619 35.0859C 101.15 35.3906 100.693 35.625 100.248 35.7891C 99.8027 35.9531 99.375 36.0645 98.9648 36.123C 98.5664 36.1816 98.209 36.2109 97.8926 36.2109C 97.3535 36.2109 96.8496 36.1289 96.3809 35.9648C 95.9121 35.8008 95.502 35.543 95.1504 35.1914C 94.8105 34.8398 94.541 34.3945 94.3418 33.8555C 94.1426 33.3164 94.043 32.666 94.043 31.9043C 94.043 31.5762 94.0664 31.2188 94.1133 30.832C 94.1602 30.4336 94.2305 30.0059 94.3242 29.5488L 96.7676 18L 101.953 18L 99.3691 30.2344C 99.3105 30.4336 99.2695 30.6328 99.2461 30.832C 99.2344 31.0195 99.2285 31.207 99.2285 31.3945C 99.2285 31.8984 99.3457 32.25 99.5801 32.4492C 99.8145 32.6367 100.184 32.7305 100.688 32.7305C 101.039 32.7305 101.379 32.6543 101.707 32.502C 102.047 32.3379 102.357 32.1152 102.639 31.834C 102.92 31.5527 103.172 31.2188 103.395 30.832C 103.617 30.4336 103.799 30.0059 103.939 29.5488L 105.451 29.5488ZM 118.652 30.2344C 118.594 30.4336 118.553 30.6328 118.529 30.832C 118.506 31.0195 118.494 31.207 118.494 31.3945C 118.494 31.8984 118.611 32.25 118.846 32.4492C 119.092 32.6367 119.467 32.7305 119.971 32.7305C 120.135 32.7305 120.281 32.7188 120.41 32.6953C 120.539 32.6719 120.656 32.6309 120.762 32.5723C 120.516 33.1934 120.281 33.7324 120.059 34.1895C 119.836 34.6465 119.59 35.0273 119.32 35.332C 119.051 35.625 118.74 35.8477 118.389 36C 118.049 36.1406 117.645 36.2109 117.176 36.2109C 116.18 36.2109 115.377 35.9238 114.768 35.3496C 114.158 34.7637 113.783 33.9375 113.643 32.8711C 113.373 33.2812 113.057 33.6855 112.693 34.084C 112.342 34.4824 111.943 34.8398 111.498 35.1562C 111.064 35.4727 110.578 35.7305 110.039 35.9297C 109.5 36.1172 108.914 36.2109 108.281 36.2109C 107.66 36.2109 107.062 36.1113 106.488 35.9121C 105.914 35.7129 105.404 35.3848 104.959 34.9277C 104.514 34.4707 104.156 33.873 103.887 33.1348C 103.617 32.3965 103.482 31.4941 103.482 30.4277C 103.482 29.6074 103.564 28.7285 103.729 27.791C 103.893 26.8535 104.145 25.916 104.484 24.9785C 104.824 24.041 105.246 23.1445 105.75 22.2891C 106.266 21.4219 106.863 20.6602 107.543 20.0039C 108.234 19.3359 109.014 18.8086 109.881 18.4219C 110.748 18.0234 111.703 17.8242 112.746 17.8242C 113.766 17.8242 114.504 18 114.961 18.3516C 115.43 18.7031 115.664 19.1367 115.664 19.6523L 115.664 19.916L 116.051 18L 121.236 18L 118.652 30.2344ZM 115.33 21.4277C 115.33 21.3223 115.307 21.1934 115.26 21.041C 115.213 20.877 115.131 20.7246 115.014 20.584C 114.908 20.4316 114.762 20.3086 114.574 20.2148C 114.387 20.1094 114.146 20.0566 113.854 20.0566C 113.35 20.0566 112.869 20.2207 112.412 20.5488C 111.967 20.877 111.557 21.3164 111.182 21.8672C 110.807 22.4062 110.473 23.0215 110.18 23.7129C 109.887 24.4043 109.635 25.1191 109.424 25.8574C 109.225 26.584 109.072 27.3047 108.967 28.0195C 108.861 28.7227 108.809 29.3555 108.809 29.918C 108.809 30.6094 108.873 31.1426 109.002 31.5176C 109.131 31.8926 109.283 32.1738 109.459 32.3613C 109.646 32.5371 109.846 32.6426 110.057 32.6777C 110.268 32.7129 110.455 32.7305 110.619 32.7305C 110.889 32.7305 111.17 32.666 111.463 32.5371C 111.768 32.3965 112.055 32.1973 112.324 31.9395C 112.605 31.6699 112.857 31.3359 113.08 30.9375C 113.314 30.5391 113.49 30.0762 113.607 29.5488L 115.33 21.4277Z"/>
<path id="path1_fill" d="M 40.2984 88.0184C 35.4867 84.7802 34.1119 74.391 35.7616 56.3111C 37.2739 40.5249 38.6487 32.1595 40.5734 27.3023C 41.6732 24.6038 41.6732 24.6038 38.7862 27.1673C 31.6373 33.2389 16.6521 41.6043 9.9157 43.0885C -3.28223 45.9219 -3.28223 39.7153 9.77822 25.953C 16.3772 19.0718 17.752 17.048 15.9648 16.3733C 13.3527 15.4289 13.0777 11.3811 15.5523 9.35725C 23.6635 2.74594 52.534 -1.8415 70.4062 0.722067C 76.4553 1.53162 82.2294 2.88086 83.0542 3.55549C 83.8791 4.09519 86.7662 5.30951 89.3782 6.25398C 96.5271 8.41278 100.102 15.8336 94.0525 15.8336C 91.028 15.8336 91.7154 17.9924 95.9772 21.2306C 101.889 25.8181 110 36.4771 110 39.8503C 110 41.4694 109.038 43.2234 107.8 43.7631C 104.363 44.9774 91.7154 40.5249 83.7416 35.3977C 79.8922 32.8342 76.5927 30.6754 76.3178 30.6754C 76.0428 30.6754 77.4176 35.3977 79.2048 41.1995C 81.267 47.4061 82.3668 54.0174 82.2294 57.6603C 81.8169 63.0573 81.4045 63.732 78.2425 64.1367C 75.3554 64.4066 73.5682 63.3272 69.7188 58.7397C 65.5945 53.7475 55.5585 34.858 53.3589 27.9769C 52.9465 26.8975 51.8466 29.596 50.8843 34.0485C 48.5471 44.7076 48.8221 71.2877 51.2967 80.1928C 52.6715 85.0501 52.809 87.6136 51.7091 88.693C 49.647 90.7169 43.7354 90.3121 40.2984 88.0184Z"/>
</defs>
</svg>
